<?xml version="1.0" encoding="utf-8"?>
<!-- Generator: Adobe Illustrator 23.0.1, SVG Export Plug-In . SVG Version: 6.00 Build 0)  -->
<svg version="1.1" id="Layer_2" xmlns="http://www.w3.org/2000/svg" xmlns:xlink="http://www.w3.org/1999/xlink" x="0px" y="0px"
	 viewBox="0 0 2000 2000" style="enable-background:new 0 0 2000 2000;" xml:space="preserve">
<style type="text/css">
	.st0{fill:#FFBA0D;}
	.st1{fill:#F05F3C;}
</style>
<g>
	<path class="st0" d="M1442.21,630.3c0,109.93-89.97,199.86-199.66,199.86H940.97v718.99c0,27.78,22.88,50.45,50.45,50.45
		c3.36,0,6.6-0.32,9.8-0.97c-14.17,3.52-27.94,8.99-40.17,17.49c-33.16,23.24-70.62,78.39-41.18,162.61
		c28.42,81.1-4.74,148.4-67.3,199.21c0,0,0,0.12,0.08,0.2c-0.08,0-0.12,0-0.2-0.04c-1.62-0.4-3.28-1.01-4.94-1.46
		c-152.29-51.22-268.17-181.92-298.86-342.71c-5.14-27.37-8.02-55.76-8.02-84.79V830.16H256.6c-109.73,0-199.66-89.93-199.66-199.86
		c0-109.89,89.93-199.66,199.66-199.66h284.04V201.95c0-110.54,89.73-200.27,200.27-200.27s200.06,89.73,200.06,200.27v228.69
		h301.57c8.34,0,16.76,0.53,24.94,1.5c0.45,0.04,0.93,0.12,1.38,0.16c7,0.81,14.01,2.27,20.81,3.89c0.16,0.08,0.32,0.12,0.49,0.2
		c1.26,0.45,2.55,0.77,3.93,0.93c0.12,0.04,0.24,0.08,0.36,0.08c0.12,0,0.24,0.04,0.36,0.04c1.09,0.4,2.15,0.69,3.2,1.05
		c0.57,0.2,1.17,0.36,1.74,0.61c1.05,0.28,2.27,0.61,3.48,1.01c0.04,0,0.12,0.04,0.16,0.04c0.36,0.12,0.73,0.24,1.09,0.36
		c1.42,0.45,2.87,0.93,4.25,1.42c0.49,0.2,0.97,0.32,1.42,0.49c0.81,0.24,1.66,0.57,2.47,0.89c0.57,0.24,1.17,0.49,1.74,0.73
		c0.04,0,0.04,0.04,0.08,0.04c0.36,0.12,0.73,0.24,1.09,0.36c0.77,0.36,1.54,0.73,2.23,0.97c0.04,0,0.04,0.04,0.08,0.04
		c3.93,1.46,7.41,3.08,11.14,4.74c4.74,2.31,9.35,4.78,13.89,7.49c6.48,3.77,12.71,7.94,18.67,12.43c0.08,0.08,0.16,0.12,0.24,0.16
		c1.7,1.3,3.36,2.59,5.02,3.93c0.49,0.36,0.97,0.77,1.5,1.17c1.05,0.89,2.15,1.78,3.2,2.71c0.93,0.73,1.86,1.54,2.79,2.39
		c2.35,2.02,4.62,4.13,6.84,6.36c1.26,1.17,2.47,2.39,3.64,3.6c1.58,1.62,3.12,3.24,4.62,4.9
		C1422.12,530.98,1442.21,578.39,1442.21,630.3z"/>
	<path class="st1" d="M1943.3,789.89c-0.41,13.59-1.44,26.97-3.29,40.14c0,0,0,0-0.21,0h-396.64c-0.21,0-0.21,0-0.21-0.21
		c0-28.2-23.46-51.04-52.08-50.02c-27.38,0.82-48.78,24.08-48.78,51.67v717.75c0,173.31-97.57,323.78-241.03,399.11
		c-62.78,33.14-134,51.67-209.75,51.67c-48.17,0-94.89-7.62-138.53-21.82c-0.21,0-0.21-0.21-0.21-0.21
		c62.57-50.84,95.71-118.15,67.31-199.25c-29.43-84.19,8.03-139.35,41.17-162.61c12.76-8.85,27.17-14.41,41.99-17.91
		c13.17-3.09,24.29-11.32,31.08-22.64c4.94-7.61,7.82-16.67,7.82-26.35V630.78c0-110.53,89.54-200.28,200.07-200.28h0.41
		c9.06,0,17.91,0.62,26.55,1.85c7,1.03,14,2.26,20.79,3.91c1.65,0.41,3.29,0.82,4.94,1.23c1.65,0.62,3.29,1.03,5.15,1.44
		c1.44,0.41,3.09,1.03,4.53,1.65c2.06,0.62,3.91,1.23,5.76,1.85c1.44,0.41,2.88,1.03,4.32,1.65c1.23,0.41,2.47,0.82,3.5,1.44
		c3.7,1.44,7.41,3.09,10.91,4.73c2.47,1.23,4.73,2.47,7.2,3.71c1.24,0.62,2.47,1.44,3.5,2.06c1.03,0.62,2.06,1.03,3.29,1.65
		c17.29,10.29,33.14,22.85,46.52,37.67h0.21c57.84-41.17,128.85-65.25,205.42-64.84C1790.36,431.94,1948.03,594.56,1943.3,789.89"/>
</g>
</svg>
