<?xml version="1.0" encoding="utf-8"?>
<!-- Generator: Adobe Illustrator 24.0.1, SVG Export Plug-In . SVG Version: 6.00 Build 0)  -->
<svg version="1.1" id="Layer_1" xmlns="http://www.w3.org/2000/svg" xmlns:xlink="http://www.w3.org/1999/xlink" x="0px" y="0px"
	 viewBox="0 0 447.3 179.7" style="enable-background:new 0 0 447.3 179.7;" xml:space="preserve">
<style type="text/css">
	.st0{fill:#FFFFFF;}
</style>
<title>tr-nav</title>
<g>
	<path class="st0" d="M0,26.2h11.5V16L27.1,5.3v20.9h13.7v13.9H27.1v25.2c0,2.4,0.1,4.7,0.5,7.1c0.3,3.2,2.8,5.7,6,6
		c2.4,0.3,4.8,0.5,7.2,0.5v14.7h-2.2c-4.4,0.1-8.8-0.4-13.1-1.4c-3.1-0.8-6-2.4-8.3-4.7c-2.2-2.4-3.7-5.4-4.4-8.6
		c-1-4.4-1.4-8.9-1.3-13.4V40.2H0V26.2z"/>
	<path class="st0" d="M75.8,93.7c-8.4,0-16.5-3.2-22.7-8.9c-3.2-3-5.8-6.6-7.6-10.6c-2-4.5-3-9.3-2.9-14.2
		c-0.1-4.9,0.9-9.8,2.8-14.4c3.5-8,10-14.2,18.2-17.2c4-1.5,8.1-2.3,12.4-2.3c4.2,0,8.4,0.8,12.3,2.4c3.6,1.5,6.7,3.7,9.3,6.6v-8.9
		h15.5v67.3H97.7V84c-2.5,3.1-5.7,5.5-9.4,7.1C84.4,92.8,80.1,93.7,75.8,93.7z M78.4,79.4c2.8,0,5.5-0.5,8-1.5
		c2.4-1,4.5-2.4,6.3-4.2c1.8-1.8,3.2-3.9,4.2-6.3c1-2.4,1.6-5,1.5-7.7c0-2.6-0.5-5.2-1.5-7.6c-1-2.3-2.4-4.4-4.2-6.2
		c-1.8-1.8-4-3.2-6.3-4.2c-5.2-2-10.9-2-16,0c-2.4,1-4.6,2.3-6.5,4.1c-1.8,1.7-3.3,3.8-4.3,6.2c-1,2.4-1.6,5-1.5,7.7
		c0,2.7,0.5,5.3,1.5,7.7c1,2.4,2.5,4.5,4.3,6.3c1.9,1.8,4.1,3.2,6.5,4.2C72.9,78.9,75.6,79.4,78.4,79.4z"/>
	<path class="st0" d="M183.3,54.4v125.3h-15.9V93.6h0V56.2c0-5.2-1.3-9.2-3.8-12.2c-2.5-3-6.3-4.4-11.4-4.4c-2.1,0-4.2,0.4-6.1,1.2
		c-1.9,0.8-3.6,1.9-5,3.4c-1.5,1.6-2.6,3.5-3.3,5.6c-0.8,2.5-1.3,5-1.2,7.6v122.2h-15.7V8.4h15.5v27.2c2.3-2.9,5.2-5.3,8.6-6.9
		c3.6-1.7,7.6-2.6,11.6-2.5c8.4,0,14.9,2.5,19.6,7.5C180.9,38.6,183.3,45.5,183.3,54.4z"/>
	<path class="st0" d="M191,26.2h15.4v8.7c2.2-2.7,5-4.9,8.1-6.4c3.5-1.6,7.3-2.4,11.1-2.4c4.6-0.1,9.3,0.9,13.4,3
		c3.6,1.9,6.5,4.9,8.5,8.4c2.3-3.5,5.5-6.3,9.2-8.3c4-2.1,8.4-3.2,13-3.1c9,0,15.9,2.5,20.5,7.4s6.9,11.7,6.9,20.3v39.8h-15.9V55.2
		c0-4.8-1.2-8.6-3.7-11.4s-6.1-4.2-10.9-4.2c-4-0.1-7.8,1.4-10.6,4.3c-2.8,2.9-4.3,7.2-4.3,12.9v36.8h-15.8V54.8
		c0-4.7-1.2-8.4-3.6-11.1s-5.9-4-10.6-4c-4.1-0.1-8,1.5-10.9,4.4c-2.9,2.9-4.3,7.3-4.3,13.2v36.4H191V26.2z"/>
	<path class="st0" d="M302.7,9.8c-0.1-2.6,0.8-5.2,2.6-7.1c4.1-3.6,10.2-3.6,14.3,0c1.8,1.9,2.7,4.5,2.6,7.1c0.1,2.6-0.8,5.1-2.6,7
		c-1.9,1.8-4.5,2.8-7.2,2.6c-3.1,0-5.6-0.9-7.3-2.6C303.5,14.9,302.6,12.4,302.7,9.8z M304.7,26.2h15.7v67.3h-15.7V26.2z"/>
	<path class="st0" d="M359.1,93.7c-8.4,0-16.5-3.2-22.7-8.9c-3.2-3-5.8-6.6-7.6-10.6c-2-4.5-3-9.3-2.9-14.2
		c-0.1-4.9,0.9-9.8,2.8-14.4c3.5-8,10-14.2,18.2-17.2c4-1.5,8.1-2.3,12.4-2.3c4.2,0,8.4,0.8,12.2,2.5c3.6,1.5,6.8,3.9,9.3,6.9v-27
		h15.7v85.1H381V84c-2.5,3.1-5.8,5.5-9.4,7.1C367.6,92.8,363.4,93.7,359.1,93.7z M361.7,79.4c2.8,0,5.5-0.5,8.1-1.5
		c2.4-1,4.5-2.4,6.3-4.2c1.8-1.8,3.2-3.9,4.2-6.3c1-2.4,1.6-5,1.5-7.7c0-2.6-0.5-5.2-1.5-7.6c-1-2.3-2.4-4.4-4.2-6.2
		c-1.8-1.8-4-3.2-6.3-4.2c-7.7-3.1-16.5-1.5-22.6,4.1c-1.9,1.7-3.3,3.8-4.4,6.2c-1,2.4-1.6,5-1.5,7.7c0,2.7,0.5,5.3,1.5,7.7
		c1,2.4,2.5,4.5,4.3,6.3c1.9,1.8,4.1,3.2,6.5,4.2C356.2,78.9,358.9,79.4,361.7,79.4L361.7,79.4z"/>
	<path class="st0" d="M2.4,112.2h15.4v10c3.1-6.7,8.9-10,17.3-10c2.2,0,4.5,0.2,6.6,0.8c1.8,0.5,3.6,1.2,5.2,2.1l-5.9,14.7
		c-1.2-0.8-2.5-1.4-3.9-1.9c-1.8-0.6-3.6-0.8-5.5-0.8c-4.5,0-8,1.3-10.3,3.8c-2.3,2.6-3.5,6.8-3.5,12.6v35.9H2.4V112.2z"/>
	<path class="st0" d="M79.5,179.7c-8.4,0-16.5-3.2-22.7-8.9c-3.2-3-5.8-6.6-7.6-10.6c-2-4.5-3-9.3-2.9-14.3
		c-0.1-4.9,0.9-9.8,2.8-14.4c3.5-8,10-14.2,18.2-17.2c4-1.5,8.1-2.3,12.4-2.3c4.2,0,8.4,0.8,12.3,2.4c3.6,1.5,6.7,3.7,9.3,6.6v-8.9
		h15.5v67.3h-15.5V170c-2.5,3.1-5.8,5.5-9.4,7.1C88,178.8,83.8,179.7,79.5,179.7z M82,165.4c2.8,0,5.5-0.5,8-1.5
		c2.4-1,4.5-2.4,6.3-4.2c1.8-1.8,3.2-3.9,4.2-6.3c1-2.4,1.6-5,1.6-7.7c0-2.6-0.5-5.2-1.6-7.6c-1-2.3-2.4-4.4-4.2-6.2
		c-1.8-1.8-4-3.2-6.3-4.2c-7.7-3.1-16.5-1.5-22.5,4.1c-1.8,1.7-3.3,3.8-4.3,6.2c-1,2.4-1.6,5-1.5,7.7c0,2.7,0.5,5.3,1.5,7.7
		c1,2.4,2.5,4.5,4.3,6.3c1.9,1.8,4.1,3.2,6.5,4.2C76.6,164.9,79.3,165.4,82,165.4z"/>
	<path class="st0" d="M194.7,112.2h15.4v8.7c2.2-2.7,5-4.9,8.1-6.4c3.5-1.6,7.3-2.4,11.1-2.4c4.7-0.1,9.3,0.9,13.4,3
		c3.6,1.9,6.5,4.9,8.5,8.4c2.3-3.5,5.5-6.3,9.2-8.3c4-2.1,8.4-3.2,13-3.1c9.1,0,15.9,2.5,20.5,7.4c4.6,4.9,6.9,11.7,6.9,20.3v39.8
		h-15.9v-38.3c0-4.8-1.2-8.6-3.7-11.4c-2.5-2.8-6.1-4.2-10.9-4.2c-4-0.1-7.8,1.4-10.6,4.3c-2.9,2.8-4.3,7.2-4.3,12.9v36.8h-15.7
		v-38.8c0-4.7-1.2-8.4-3.6-11.1s-5.9-4.1-10.6-4.1c-4.1-0.1-8,1.5-10.9,4.4c-2.9,2.9-4.3,7.3-4.3,13.2v36.4h-15.5V112.2z"/>
	<path class="st0" d="M339.3,179.7c-8.4,0-16.5-3.2-22.7-8.9c-3.2-3-5.8-6.6-7.6-10.6c-2-4.5-3-9.3-2.9-14.3
		c-0.1-4.9,0.9-9.8,2.8-14.4c3.5-8,10-14.2,18.2-17.2c4-1.5,8.1-2.3,12.4-2.3c4.2,0,8.4,0.8,12.3,2.4c3.6,1.5,6.8,3.7,9.3,6.6v-8.9
		h15.5v67.3h-15.5V170c-2.5,3.1-5.8,5.5-9.4,7.1C347.8,178.8,343.6,179.7,339.3,179.7z M341.8,165.4c2.8,0,5.5-0.5,8.1-1.5
		c2.4-1,4.5-2.4,6.3-4.2c1.8-1.8,3.2-3.9,4.2-6.3c1-2.4,1.6-5,1.5-7.7c0-2.6-0.5-5.2-1.5-7.6c-1-2.3-2.4-4.4-4.2-6.2
		c-1.8-1.8-4-3.2-6.3-4.2c-7.7-3.1-16.5-1.5-22.6,4.1c-1.8,1.7-3.3,3.8-4.3,6.2c-1,2.4-1.6,5-1.5,7.7c0,2.7,0.5,5.3,1.5,7.7
		c1,2.4,2.5,4.5,4.3,6.3c1.9,1.8,4.1,3.2,6.5,4.2C336.4,164.9,339.1,165.4,341.8,165.4L341.8,165.4z"/>
	<path class="st0" d="M385,112.2h15.4v9.2c2.3-2.8,5.2-5.2,8.5-6.8c3.6-1.7,7.6-2.6,11.7-2.6c8.4,0,14.9,2.5,19.6,7.5
		c4.7,5,7.1,11.9,7.1,20.8v39.2h-15.8v-37.4c0-5.1-1.3-9.1-3.8-12.1c-2.5-3-6.3-4.4-11.4-4.4c-4.2-0.1-8.3,1.6-11.2,4.6
		c-3,3.1-4.6,7.5-4.5,13.3v36.1H385V112.2z"/>
</g>
</svg>
